<?xml version="1.0" encoding="UTF-8" standalone="no"?>
<!-- Created with Inkscape (http://www.inkscape.org/) -->

<svg
   width="385.1944"
   height="103.01711"
   version="1.1"
   viewBox="0 0 101.91602 27.256609"
   id="svg66"
   xml:space="preserve"
   xmlns:xlink="http://www.w3.org/1999/xlink"
   xmlns="http://www.w3.org/2000/svg"
   xmlns:svg="http://www.w3.org/2000/svg"
   xmlns:rdf="http://www.w3.org/1999/02/22-rdf-syntax-ns#"
   xmlns:cc="http://creativecommons.org/ns#"
   xmlns:dc="http://purl.org/dc/elements/1.1/"><defs
     id="defs70"><linearGradient
       id="linearGradient41"><stop
         style="stop-color:#000000;stop-opacity:1;"
         offset="0"
         id="stop39" /><stop
         style="stop-color:#a82515;stop-opacity:1;"
         offset="0.5"
         id="stop40" /><stop
         style="stop-color:#ff981d;stop-opacity:1;"
         offset="1"
         id="stop41" /></linearGradient><linearGradient
       id="linearGradient2"><stop
         style="stop-color:#000000;stop-opacity:1;"
         offset="0"
         id="stop1" /><stop
         style="stop-color:#3415a8;stop-opacity:1;"
         offset="0.5"
         id="stop3" /><stop
         style="stop-color:#9600b3;stop-opacity:1;"
         offset="1"
         id="stop2" /></linearGradient><linearGradient
       xlink:href="#linearGradient41"
       id="linearGradient108"
       gradientUnits="userSpaceOnUse"
       x1="1.309"
       y1="-4.2261229"
       x2="14.214698"
       y2="19.198961" /><linearGradient
       xlink:href="#linearGradient41"
       id="linearGradient109"
       gradientUnits="userSpaceOnUse"
       x1="1.309"
       y1="-4.2261229"
       x2="14.214698"
       y2="19.198961" /><linearGradient
       xlink:href="#linearGradient41"
       id="linearGradient110"
       gradientUnits="userSpaceOnUse"
       x1="1.309"
       y1="-4.2261229"
       x2="14.214698"
       y2="19.198961" /><linearGradient
       xlink:href="#linearGradient41"
       id="linearGradient111"
       gradientUnits="userSpaceOnUse"
       x1="1.309"
       y1="-4.2261229"
       x2="14.214698"
       y2="19.198961" /><linearGradient
       xlink:href="#linearGradient41"
       id="linearGradient112"
       gradientUnits="userSpaceOnUse"
       x1="1.309"
       y1="-4.2261229"
       x2="14.214698"
       y2="19.198961" /><linearGradient
       xlink:href="#linearGradient41"
       id="linearGradient113"
       gradientUnits="userSpaceOnUse"
       x1="1.309"
       y1="-4.2261229"
       x2="14.214698"
       y2="19.198961" /><linearGradient
       xlink:href="#linearGradient41"
       id="linearGradient114"
       gradientUnits="userSpaceOnUse"
       x1="1.309"
       y1="-4.2261229"
       x2="14.214698"
       y2="19.198961" /><linearGradient
       xlink:href="#linearGradient41"
       id="linearGradient115"
       gradientUnits="userSpaceOnUse"
       x1="1.309"
       y1="-4.2261229"
       x2="14.214698"
       y2="19.198961" /><linearGradient
       xlink:href="#linearGradient41"
       id="linearGradient116"
       gradientUnits="userSpaceOnUse"
       x1="1.309"
       y1="-4.2261229"
       x2="14.214698"
       y2="19.198961" /><linearGradient
       xlink:href="#linearGradient41"
       id="linearGradient117"
       gradientUnits="userSpaceOnUse"
       x1="1.309"
       y1="-4.2261229"
       x2="14.214698"
       y2="19.198961" /><linearGradient
       xlink:href="#linearGradient41"
       id="linearGradient118"
       gradientUnits="userSpaceOnUse"
       x1="1.309"
       y1="-4.2261229"
       x2="14.214698"
       y2="19.198961" /><linearGradient
       xlink:href="#linearGradient41"
       id="linearGradient119"
       gradientUnits="userSpaceOnUse"
       x1="1.309"
       y1="-4.2261229"
       x2="14.214698"
       y2="19.198961" /><linearGradient
       xlink:href="#linearGradient41"
       id="linearGradient120"
       gradientUnits="userSpaceOnUse"
       x1="1.309"
       y1="-4.2261229"
       x2="14.214698"
       y2="19.198961" /><linearGradient
       xlink:href="#linearGradient41"
       id="linearGradient121"
       gradientUnits="userSpaceOnUse"
       x1="1.309"
       y1="-4.2261229"
       x2="14.214698"
       y2="19.198961" /><linearGradient
       xlink:href="#linearGradient41"
       id="linearGradient122"
       gradientUnits="userSpaceOnUse"
       x1="1.309"
       y1="-4.2261229"
       x2="14.214698"
       y2="19.198961" /><linearGradient
       xlink:href="#linearGradient41"
       id="linearGradient123"
       gradientUnits="userSpaceOnUse"
       x1="1.309"
       y1="-4.2261229"
       x2="14.214698"
       y2="19.198961" /><linearGradient
       xlink:href="#linearGradient41"
       id="linearGradient124"
       gradientUnits="userSpaceOnUse"
       x1="1.309"
       y1="-4.2261229"
       x2="14.214698"
       y2="19.198961" /><linearGradient
       xlink:href="#linearGradient41"
       id="linearGradient125"
       gradientUnits="userSpaceOnUse"
       x1="1.309"
       y1="-4.2261229"
       x2="14.214698"
       y2="19.198961" /><linearGradient
       xlink:href="#linearGradient41"
       id="linearGradient126"
       gradientUnits="userSpaceOnUse"
       x1="1.309"
       y1="-4.2261229"
       x2="14.214698"
       y2="19.198961" /><linearGradient
       xlink:href="#linearGradient41"
       id="linearGradient127"
       gradientUnits="userSpaceOnUse"
       x1="1.309"
       y1="-4.2261229"
       x2="14.214698"
       y2="19.198961" /><linearGradient
       xlink:href="#linearGradient41"
       id="linearGradient128"
       gradientUnits="userSpaceOnUse"
       x1="1.309"
       y1="-4.2261229"
       x2="14.214698"
       y2="19.198961" /><linearGradient
       xlink:href="#linearGradient41"
       id="linearGradient129"
       gradientUnits="userSpaceOnUse"
       x1="1.309"
       y1="-4.2261229"
       x2="14.214698"
       y2="19.198961" /><linearGradient
       xlink:href="#linearGradient2"
       id="linearGradient130"
       gradientUnits="userSpaceOnUse"
       x1="63.993118"
       y1="86.933563"
       x2="30.812494"
       y2="-9.4299669"
       gradientTransform="translate(-105.98715)" /></defs><title
     id="title2">Prism Launcher Logo</title><g
     id="layer2"
     transform="translate(109.54237,-25.123486)"><path
       id="rect72"
       style="display:inline;fill:url(#linearGradient130);stroke-width:0.264583"
       d="m -107.76477,25.123482 h 98.3608147 c 0.9847931,0 1.7776049,0.792812 1.7776049,1.777605 v 23.701401 c 0,0.984793 -0.7928118,1.777605 -1.7776049,1.777605 H -107.76477 c -0.98479,0 -1.7776,-0.792812 -1.7776,-1.777605 V 26.901087 c 0,-0.984793 0.79281,-1.777605 1.7776,-1.777605 z" /><g
       id="g108"
       transform="translate(-105.98715)"><g
         stroke-width="0.26458"
         id="g81"
         style="display:none;opacity:1;fill:url(#linearGradient118)"
         transform="translate(26.546414,32.420054)"><path
           d="M 6.35,6.35"
           fill="#99cd61"
           id="path72"
           style="fill:url(#linearGradient108);fill-opacity:1" /><path
           d="M 6.35,0.52917 3.8292,4.89477 6.35,6.34997 8.8703,4.89477 8.97985,1.79517 C 7.82875,1.13058 6.64105,0.52907 6.35005,0.52907 Z"
           fill="#df6277"
           id="path73"
           style="fill:url(#linearGradient109);fill-opacity:1" /><path
           d="M 8.9798,1.7952 6.35,6.35 8.8703,7.8052 11.3911,3.4396 C 11.24558,3.18755 10.131,2.45985 8.9799,1.7953 Z"
           fill="#fb9168"
           id="path74"
           style="fill:url(#linearGradient110);fill-opacity:1" /><path
           d="M 11.391,3.4396 6.35,6.35 8.8703,7.8052 11.6092,6.35 c 0,-1.3292 -0.07255,-2.6584 -0.21808,-2.9104 z"
           fill="#f3db6c"
           id="path75"
           style="fill:url(#linearGradient111);fill-opacity:1" /><path
           d="m 6.35,6.35 v 2.9104 h 5.041 C 11.53652,9.00835 11.60907,7.6792 11.60908,6.35 Z"
           fill="#7ab392"
           id="path76"
           style="fill:url(#linearGradient112);fill-opacity:1" /><path
           d="m 6.35,6.35 v 2.9104 l 2.6298,1.6443 c 1.1511,-0.66459 2.2657,-1.3923 2.4112,-1.6443 z"
           fill="#4b7cbc"
           id="path77"
           style="fill:url(#linearGradient113);fill-opacity:1" /><path
           d="M 6.35,6.35 3.8292,7.8052 6.35,12.1708 c 0.29104,0 1.4787,-0.60148 2.6298,-1.2661 z"
           fill="#6f488c"
           id="path78"
           style="fill:url(#linearGradient114);fill-opacity:1" /><path
           d="M 3.8292,4.8948 1.3089,9.2604 c 0.29104,0.5041 4.459,2.9104 5.041,2.9104 V 6.35 Z"
           fill="#4d3f33"
           id="path79"
           style="fill:url(#linearGradient115);fill-opacity:1" /><path
           d="m 1.309,3.4396 c -0.29104,0.5041 -0.29104,5.3167 0,5.8208 L 6.35,6.35 V 3.4396 Z"
           fill="#7a573b"
           id="path80"
           style="fill:url(#linearGradient116);fill-opacity:1" /><path
           d="m 6.35,0.52917 c -0.58208,-2e-8 -4.75,2.4063 -5.041,2.9104 l 5.041,2.9104 z"
           fill="#99cd61"
           id="path81"
           style="fill:url(#linearGradient117);fill-opacity:1" /></g><g
         stroke-width="0.26458"
         id="g91"
         style="opacity:1;fill:url(#linearGradient129)"
         transform="translate(26.546414,32.420054)"><path
           d="M 6.35,6.35"
           fill="#99cd61"
           id="path82"
           style="fill:url(#linearGradient119);fill-opacity:1" /><path
           d="M 6.35,0.52917 3.8292,4.89477 6.35,6.34997 8.8703,4.89477 8.97985,1.79517 C 7.82875,1.13058 6.64105,0.52907 6.35005,0.52907 Z"
           fill="#df6277"
           id="path83"
           style="fill:url(#linearGradient120);fill-opacity:1" /><path
           d="M 8.9798,1.7952 6.35,6.35 8.8703,7.8052 11.3911,3.4396 C 11.24558,3.18755 10.131,2.45985 8.9799,1.7953 Z"
           fill="#fb9168"
           id="path84"
           style="fill:url(#linearGradient121);fill-opacity:1" /><path
           d="M 11.391,3.4396 6.35,6.35 8.8703,7.8052 11.6092,6.35 c 0,-1.3292 -0.07255,-2.6584 -0.21808,-2.9104 z"
           fill="#f3db6c"
           id="path85"
           style="fill:url(#linearGradient122);fill-opacity:1" /><path
           d="m 6.35,6.35 v 2.9104 h 5.041 C 11.53652,9.00835 11.60907,7.6792 11.60908,6.35 Z"
           fill="#7ab392"
           id="path86"
           style="fill:url(#linearGradient123);fill-opacity:1" /><path
           d="m 6.35,6.35 v 2.9104 l 2.6298,1.6443 c 1.1511,-0.66459 2.2657,-1.3923 2.4112,-1.6443 z"
           fill="#4b7cbc"
           id="path87"
           style="fill:url(#linearGradient124);fill-opacity:1" /><path
           d="M 6.35,6.35 3.8292,7.8052 6.35,12.1708 c 0.29104,0 1.4787,-0.60148 2.6298,-1.2661 z"
           fill="#6f488c"
           id="path88"
           style="fill:url(#linearGradient125);fill-opacity:1" /><path
           d="M 3.8292,4.8948 1.3089,9.2604 c 0.29104,0.5041 4.459,2.9104 5.041,2.9104 V 6.35 Z"
           fill="#4d3f33"
           id="path89"
           style="fill:url(#linearGradient126);fill-opacity:1" /><path
           d="m 1.309,3.4396 c -0.29104,0.5041 -0.29104,5.3167 0,5.8208 L 6.35,6.35 V 3.4396 Z"
           fill="#7a573b"
           id="path90"
           style="fill:url(#linearGradient127);fill-opacity:1" /><path
           d="m 6.35,0.52917 c -0.58208,-2e-8 -4.75,2.4063 -5.041,2.9104 l 5.041,2.9104 z"
           fill="#99cd61"
           id="path91"
           style="fill:url(#linearGradient128);fill-opacity:1" /></g><g
         transform="matrix(0.88,0,0,0.88,15.639567,31.177977)"
         id="g93"><g
           transform="translate(13.26,2.2776)"
           id="g92"><path
             transform="matrix(0.96975,0,0,0.96975,0.1921,0.1921)"
             d="m 6.3498,2.9393 c -0.34105,0 -2.7827,1.4099 -2.9532,1.7052 L 6.3498,9.7602 9.3036,4.6445 C 9.13308,4.34915 6.6909,2.9393 6.3498,2.9393 Z"
             fill="#ffffff"
             stroke-width="0.26458"
             id="path92" /></g><path
           d="m 16.746,6.9737 2.8639,4.9609 c 0.33073,0 2.6991,-1.3672 2.8644,-1.6536 0.16536,-0.28642 0.16536,-3.0209 0,-3.3073 l -2.8644,1.6536 z"
           fill="#dfdfdf"
           stroke-width="0.26458"
           id="path93" /></g><path
         d="m 30.375467,37.314877 c -0.14551,0.25205 -0.14553,2.6584 0,2.9104 0.14553,0.25204 2.2292,1.4552 2.5203,1.4552 v -2.9104 z"
         fill="#d6d2d2"
         stroke-width="0.26458"
         id="path94" /><g
         fill="#14191e"
         stroke-width="0.26458"
         aria-label="Prism Launcher"
         id="g107"
         style="display:inline;fill:#ffffff;fill-opacity:1"
         transform="translate(26.545567,32.420077)"><path
           d="M 15.669,3.991 H 15.22609 V 3.1528 H 15.669 c 0.32385,0 0.46196,0.16192 0.46196,0.4191 0,0.25718 -0.13811,0.4191 -0.46196,0.4191 z m 1.2906,-0.4191 c 0,-0.61436 -0.40958,-1.0763 -1.2287,-1.0763 h -1.3192 v 3.3433 h 0.81439 V 4.6388 h 0.50482 c 0.85249,0 1.2287,-0.51435 1.2287,-1.0668 z"
           id="path95"
           style="fill:#ffffff;fill-opacity:1" /><path
           d="m 18.198,4.6053 c 0,-0.4572 0.22384,-0.59055 0.6096,-0.59055 h 0.22384 V 3.15274 c -0.35719,0 -0.6477,0.1905 -0.83344,0.47149 V 3.18132 h -0.81439 v 2.6575 H 18.198 Z"
           id="path96"
           style="fill:#ffffff;fill-opacity:1" /><path
           d="m 19.421,3.1813 v 2.6575 h 0.81439 V 3.1813 Z m 0.40958,-0.27622 c 0.28575,0 0.48101,-0.19526 0.48101,-0.43815 0,-0.24765 -0.19526,-0.44291 -0.48101,-0.44291 -0.29051,0 -0.48578,0.19526 -0.48578,0.44291 0,0.24289 0.19526,0.43815 0.48578,0.43815 z"
           id="path97"
           style="fill:#ffffff;fill-opacity:1" /><path
           d="m 21.908,5.8769 c 0.66675,0 1.0763,-0.34766 1.0763,-0.80962 -0.01429,-0.9906 -1.4526,-0.69056 -1.4526,-1.1144 0,-0.12859 0.10478,-0.20479 0.29528,-0.20479 0.2286,0 0.36671,0.11906 0.39052,0.30004 h 0.75248 c -0.05239,-0.52388 -0.43339,-0.90487 -1.1192,-0.90487 -0.69532,0 -1.0811,0.37147 -1.0811,0.82391 0,0.97631 1.4478,0.66675 1.4478,1.0954 0,0.11906 -0.10954,0.21431 -0.31909,0.21431 -0.22384,0 -0.39052,-0.12382 -0.40958,-0.30956 h -0.80486 c 0.0381,0.51435 0.51435,0.90964 1.224,0.90964 z"
           id="path98"
           style="fill:#ffffff;fill-opacity:1" /><path
           d="m 27.146,4.3958 v 1.443 h 0.80962 V 4.2862 c 0,-0.71438 -0.42386,-1.1335 -1.0811,-1.1335 -0.38576,0 -0.71914,0.21431 -0.89535,0.4953 -0.18098,-0.31909 -0.50482,-0.4953 -0.90488,-0.4953 -0.34766,0 -0.61912,0.14764 -0.77629,0.36195 V 3.18128 h -0.81439 v 2.6575 H 24.298 v -1.443 c 0,-0.34766 0.20002,-0.53816 0.50959,-0.53816 0.30956,0 0.50959,0.1905 0.50959,0.53816 v 1.443 h 0.80962 v -1.443 c 0,-0.34766 0.20002,-0.53816 0.50959,-0.53816 0.30956,0 0.50959,0.1905 0.50959,0.53816 z"
           id="path99"
           style="fill:#ffffff;fill-opacity:1" /><path
           d="m 15.226,7.258 h -0.81439 v 3.3433 h 1.8812 V 9.97265 h -1.0668 z"
           id="path100"
           style="fill:#ffffff;fill-opacity:1" /><path
           d="m 16.521,9.2678 c 0,0.8382 0.51911,1.3716 1.1668,1.3716 0.39529,0 0.67628,-0.18098 0.82391,-0.41434 V 10.6013 H 19.3261 V 7.9438 H 18.51171 V 8.32004 C 18.36883,8.08668 18.08785,7.9057 17.69256,7.9057 c -0.65246,0 -1.1716,0.52387 -1.1716,1.3621 z m 1.9907,0.00476 c 0,0.42386 -0.27146,0.65722 -0.58102,0.65722 -0.3048,0 -0.58102,-0.23812 -0.58102,-0.66199 0,-0.42387 0.27622,-0.65246 0.58102,-0.65246 0.30956,0 0.58102,0.23336 0.58102,0.65722 z"
           id="path101"
           style="fill:#ffffff;fill-opacity:1" /><path
           d="M 22.541,10.601 V 7.9435 h -0.81439 v 1.443 c 0,0.36195 -0.20002,0.56198 -0.51435,0.56198 -0.3048,0 -0.50959,-0.20002 -0.50959,-0.56198 v -1.443 h -0.80962 v 1.5526 c 0,0.70961 0.41434,1.1335 1.0287,1.1335 0.35719,0 0.64294,-0.16192 0.80486,-0.39052 v 0.36195 z"
           id="path102"
           style="fill:#ffffff;fill-opacity:1" /><path
           d="m 24.96,9.1583 v 1.443 h 0.80962 V 9.0487 c 0,-0.71438 -0.40958,-1.1335 -1.0239,-1.1335 -0.35719,0 -0.64294,0.15716 -0.80486,0.381 V 7.94378 h -0.81439 v 2.6575 h 0.81439 v -1.443 c 0,-0.36195 0.20002,-0.56198 0.50959,-0.56198 0.30956,0 0.50959,0.20002 0.50959,0.56198 z"
           id="path103"
           style="fill:#ffffff;fill-opacity:1" /><path
           d="m 26.175,9.2726 c 0,0.84296 0.55245,1.3668 1.3335,1.3668 0.66675,0 1.1382,-0.38576 1.2764,-1.0001 h -0.86678 c -0.07144,0.19526 -0.20002,0.3048 -0.42386,0.3048 -0.29051,0 -0.49054,-0.2286 -0.49054,-0.67151 0,-0.44291 0.20002,-0.67151 0.49054,-0.67151 0.22384,0 0.35719,0.11906 0.42386,0.3048 h 0.86678 c -0.13811,-0.63341 -0.6096,-1.0001 -1.2764,-1.0001 -0.78105,0 -1.3335,0.52864 -1.3335,1.3668 z"
           id="path104"
           style="fill:#ffffff;fill-opacity:1" /><path
           d="m 29.218,7.0771 v 3.5243 h 0.81439 v -1.443 c 0,-0.36195 0.20002,-0.56198 0.50959,-0.56198 0.30956,0 0.50959,0.20002 0.50959,0.56198 v 1.443 h 0.80962 V 9.0488 c 0,-0.71438 -0.40481,-1.1335 -1.0096,-1.1335 -0.36671,0 -0.65722,0.15716 -0.81915,0.38576 v -1.224 z"
           id="path105"
           style="fill:#ffffff;fill-opacity:1" /><path
           d="m 33.599,8.5582 c 0.27146,0 0.50006,0.16669 0.50006,0.4572 h -1.0192 c 0.04762,-0.29528 0.25241,-0.4572 0.51911,-0.4572 z m 1.2716,1.162 h -0.86678 c -0.06667,0.14288 -0.19526,0.25718 -0.42386,0.25718 -0.26194,0 -0.47625,-0.16192 -0.50482,-0.50959 h 1.8431 c 0.0095,-0.080963 0.01429,-0.16192 0.01429,-0.23812 0,-0.80962 -0.54769,-1.324 -1.324,-1.324 -0.79058,0 -1.343,0.52387 -1.343,1.3668 0,0.84296 0.56198,1.3668 1.343,1.3668 0.66199,0 1.1335,-0.40005 1.2621,-0.91916 z"
           id="path106"
           style="fill:#ffffff;fill-opacity:1" /><path
           d="m 36.176,9.3678 c 0,-0.4572 0.22384,-0.59055 0.6096,-0.59055 h 0.22384 V 7.91524 c -0.35719,0 -0.6477,0.1905 -0.83344,0.47149 V 7.94382 h -0.81439 v 2.6575 H 36.176 Z"
           id="path107"
           style="fill:#ffffff;fill-opacity:1" /></g></g><path
       d="m -64.606643,45.472039 q -0.04233,0 -0.08467,-0.0071 -0.04233,-0.0071 -0.08185,-0.0254 -0.0381,-0.01976 -0.06914,-0.04939 -0.03105,-0.03104 -0.0508,-0.06773 -0.01835,-0.0381 -0.02681,-0.08043 -0.0071,-0.04233 -0.0071,-0.08467 V 44.72693 q 0,-0.04233 0.0071,-0.08467 0.0085,-0.04233 0.02681,-0.07902 0.01975,-0.0381 0.0508,-0.06773 0.03104,-0.03104 0.06914,-0.04939 0.03951,-0.01976 0.08185,-0.02681 0.04233,-0.0071 0.08467,-0.0071 0.04233,0 0.08467,0.0071 0.04233,0.0071 0.08043,0.02681 0.03951,0.01834 0.07055,0.04939 0.03104,0.02963 0.04939,0.06773 0.01976,0.03669 0.02681,0.07902 0.0085,0.04233 0.0085,0.08467 v 0.430389 q 0,0.04233 -0.0085,0.08467 -0.0071,0.04233 -0.02681,0.08043 -0.01834,0.03669 -0.04939,0.06773 -0.03104,0.02963 -0.07055,0.04939 -0.0381,0.01834 -0.08043,0.0254 -0.04233,0.0071 -0.08467,0.0071 z m 0,-0.142522 q 0.03246,0 0.0635,-0.01129 0.03246,-0.0127 0.05221,-0.0381 0.02117,-0.0254 0.02822,-0.05785 0.0085,-0.03246 0.0085,-0.06491 v -0.430389 q 0,-0.03245 -0.0085,-0.06491 -0.0071,-0.03245 -0.02822,-0.05785 -0.01976,-0.0254 -0.05221,-0.03669 -0.03104,-0.0127 -0.0635,-0.0127 -0.03245,0 -0.06491,0.0127 -0.03104,0.01129 -0.05221,0.03669 -0.01976,0.0254 -0.02822,0.05785 -0.0071,0.03246 -0.0071,0.06491 v 0.430389 q 0,0.03245 0.0071,0.06491 0.0085,0.03246 0.02822,0.05785 0.02117,0.0254 0.05221,0.0381 0.03246,0.01129 0.06491,0.01129 z m 0.733778,0.131234 V 44.92594 h -0.196144 v -0.142522 h 0.196144 v -0.108656 q 0,-0.03387 0.0056,-0.06773 0.0056,-0.03387 0.02117,-0.0635 0.01552,-0.03104 0.03951,-0.05503 0.02399,-0.02399 0.05362,-0.0381 0.03104,-0.01552 0.0635,-0.02117 0.03387,-0.0056 0.06773,-0.0056 h 0.170745 v 0.142522 h -0.170745 q -0.01976,0 -0.0381,0.0085 -0.01693,0.0085 -0.02822,0.0254 -0.0099,0.01552 -0.01411,0.03528 -0.0028,0.01976 -0.0028,0.03951 V 44.7835 h 0.254 v 0.142522 h -0.254 v 0.534811 z m 0.846666,0 V 44.92594 h -0.196144 v -0.142522 h 0.196144 v -0.108656 q 0,-0.03387 0.0056,-0.06773 0.0056,-0.03387 0.02117,-0.0635 0.01552,-0.03104 0.03951,-0.05503 0.02399,-0.02399 0.05362,-0.0381 0.03104,-0.01552 0.0635,-0.02117 0.03387,-0.0056 0.06773,-0.0056 h 0.170744 v 0.142522 h -0.170744 q -0.01975,0 -0.0381,0.0085 -0.01693,0.0085 -0.02822,0.0254 -0.0099,0.01552 -0.01411,0.03528 -0.0028,0.01976 -0.0028,0.03951 V 44.7835 h 0.253999 v 0.142522 h -0.253999 v 0.534811 z m 1.2573,0 h -0.131233 q -0.03387,0 -0.06773,-0.0056 -0.03246,-0.0056 -0.0635,-0.01976 -0.02963,-0.01552 -0.05362,-0.03951 -0.02399,-0.02399 -0.03951,-0.05362 -0.01411,-0.03104 -0.01975,-0.06491 -0.0056,-0.03387 -0.0056,-0.06773 v -0.643466 h -0.200377 v -0.142522 h 0.366888 v 0.785988 q 0,0.01976 0.0028,0.03951 0.0042,0.01976 0.01411,0.03669 0.01129,0.01552 0.02822,0.02399 0.01834,0.0085 0.0381,0.0085 h 0.131233 z m 0.265289,0 v -0.142523 h 0.211667 v -0.448733 h -0.127 v -0.142522 h 0.293511 v 0.591255 h 0.189089 v 0.142523 z m 0.2921,-0.832555 q -0.02258,0 -0.04516,-0.0071 -0.02258,-0.0071 -0.0381,-0.02258 -0.01552,-0.01552 -0.02258,-0.0381 -0.0071,-0.02258 -0.0071,-0.04516 0,-0.02258 0.0071,-0.04516 0.0071,-0.02258 0.02258,-0.0381 0.01552,-0.01552 0.0381,-0.02258 0.02258,-0.0071 0.04516,-0.0071 0.02258,0 0.04516,0.0071 0.02258,0.0071 0.0381,0.02258 0.01552,0.01552 0.02258,0.0381 0.0071,0.02258 0.0071,0.04516 0,0.02258 -0.0071,0.04516 -0.0071,0.02258 -0.02258,0.0381 -0.01552,0.01552 -0.0381,0.02258 -0.02258,0.0071 -0.04516,0.0071 z m 0.529167,0.832555 v -0.733778 h 0.167922 v 0.135467 q 0.0127,-0.03246 0.03245,-0.06068 0.02117,-0.02822 0.04939,-0.04798 0.02822,-0.02117 0.06209,-0.02963 0.03387,-0.0085 0.06773,-0.0085 0.03669,0 0.07197,0.0099 0.03669,0.0099 0.06491,0.03246 0.02963,0.02258 0.04939,0.05503 0.02117,0.03104 0.03245,0.06632 0.01129,0.03387 0.01552,0.07056 0.0042,0.03669 0.0042,0.07338 v 0.437445 h -0.167922 V 45.0233 q 0,-0.03104 -0.0071,-0.06068 -0.0071,-0.03104 -0.0254,-0.05503 -0.01834,-0.0254 -0.04798,-0.03669 -0.02963,-0.0127 -0.06068,-0.0127 -0.03105,0 -0.06068,0.0127 -0.02963,0.01129 -0.04798,0.03669 -0.01834,0.02399 -0.0254,0.05503 -0.0071,0.02963 -0.0071,0.06068 v 0.437445 z m 1.1557,0.01129 q -0.04233,0 -0.08467,-0.0071 -0.04092,-0.0071 -0.07902,-0.02399 -0.0381,-0.01834 -0.07056,-0.04657 -0.03104,-0.02963 -0.0508,-0.06632 -0.01976,-0.0381 -0.02822,-0.07902 -0.0071,-0.04233 -0.0071,-0.08467 V 45.02326 q 0,-0.04233 0.0071,-0.08326 0.0085,-0.04233 0.02822,-0.07902 0.01976,-0.0381 0.0508,-0.06632 0.03246,-0.02963 0.07056,-0.04657 0.0381,-0.01834 0.07902,-0.0254 0.04233,-0.0071 0.08467,-0.0071 0.04233,0 0.08326,0.0071 0.04233,0.0071 0.08043,0.0254 0.0381,0.01693 0.06914,0.04657 0.03245,0.02822 0.05221,0.06632 0.01976,0.03669 0.02681,0.07902 0.0085,0.04092 0.0085,0.08326 v 0.141111 h -0.475545 q 0,0.03246 0.0085,0.06491 0.0085,0.03104 0.02963,0.05644 0.02117,0.02399 0.05221,0.03528 0.03245,0.01129 0.06491,0.01129 0.02399,0 0.04798,-0.0028 0.0254,-0.0042 0.04798,-0.01411 0.02258,-0.0099 0.03951,-0.02822 0.01693,-0.01976 0.01693,-0.04374 h 0.1651 q 0,0.03528 -0.01411,0.07055 -0.0127,0.03528 -0.03669,0.0635 -0.02399,0.02681 -0.05644,0.04657 -0.03104,0.01834 -0.06632,0.02963 -0.03387,0.0099 -0.07056,0.01411 -0.03669,0.0042 -0.07338,0.0042 z m -0.155223,-0.448733 h 0.310445 q 0,-0.03245 -0.0085,-0.0635 -0.0085,-0.03246 -0.02963,-0.05644 -0.02117,-0.0254 -0.05362,-0.03669 -0.03104,-0.01129 -0.0635,-0.01129 -0.03246,0 -0.06491,0.01129 -0.03104,0.01129 -0.05221,0.03669 -0.02117,0.02399 -0.02963,0.05644 -0.0085,0.03104 -0.0085,0.0635 z m 2.1463,0.437445 h -0.131233 q -0.03387,0 -0.06773,-0.0056 -0.03245,-0.0056 -0.0635,-0.01976 -0.02963,-0.01552 -0.05362,-0.03951 -0.02399,-0.02399 -0.03951,-0.05362 -0.01411,-0.03104 -0.01976,-0.06491 -0.0056,-0.03387 -0.0056,-0.06773 v -0.643466 h -0.200377 v -0.142522 h 0.366888 v 0.785988 q 0,0.01976 0.0028,0.03951 0.0042,0.01976 0.01411,0.03669 0.01129,0.01552 0.02822,0.02399 0.01834,0.0085 0.0381,0.0085 h 0.131233 z m 0.472722,0.01129 q -0.03104,0 -0.06209,-0.0042 -0.02963,-0.0042 -0.05786,-0.01552 -0.02822,-0.01129 -0.05362,-0.03104 -0.02399,-0.01975 -0.04092,-0.04516 -0.01552,-0.0254 -0.02258,-0.05503 -0.0071,-0.03104 -0.0071,-0.06209 0,-0.03951 0.0127,-0.07902 0.0127,-0.03951 0.03951,-0.06914 0.02822,-0.02963 0.0635,-0.04939 0.03669,-0.01975 0.07479,-0.02963 0.03951,-0.01129 0.07902,-0.01552 0.04092,-0.0042 0.08184,-0.0042 h 0.112889 v -0.03669 q 0,-0.02681 -0.01129,-0.0508 -0.01129,-0.0254 -0.03245,-0.04092 -0.02117,-0.01693 -0.04798,-0.02258 -0.02681,-0.0056 -0.05362,-0.0056 -0.02399,0 -0.04798,0.0042 -0.02258,0.0028 -0.04515,0.0127 -0.02117,0.0099 -0.03669,0.02963 -0.01552,0.01834 -0.01552,0.04092 v 0.0014 h -0.1651 v -0.0042 q 0,-0.03528 0.0127,-0.06914 0.0127,-0.03528 0.03528,-0.06209 0.02399,-0.02681 0.05503,-0.04516 0.03104,-0.01834 0.06491,-0.02963 0.03528,-0.01129 0.07056,-0.01411 0.03528,-0.0042 0.07197,-0.0042 0.0381,0 0.0762,0.0056 0.0381,0.0042 0.07338,0.01834 0.03669,0.0127 0.06773,0.03669 0.03245,0.02258 0.05362,0.05503 0.02117,0.03104 0.02963,0.06914 0.0099,0.03669 0.0099,0.07479 v 0.485422 h -0.1651 v -0.122767 q -0.01411,0.03104 -0.03669,0.05786 -0.02117,0.02681 -0.0508,0.04516 -0.02963,0.01693 -0.06491,0.02399 -0.03387,0.0071 -0.06773,0.0071 z m 0.06914,-0.139699 q 0.02963,0 0.05785,-0.0071 0.02963,-0.0085 0.0508,-0.02681 0.02258,-0.01976 0.03246,-0.04657 0.0099,-0.02822 0.0099,-0.05785 v -0.04233 H -56.9556 q -0.01976,0 -0.03951,0.0014 -0.01834,0.0014 -0.03669,0.0042 -0.01835,0.0028 -0.03669,0.0085 -0.01834,0.0056 -0.03528,0.01552 -0.01693,0.0085 -0.02822,0.0254 -0.0099,0.01552 -0.0099,0.03528 0,0.02399 0.01552,0.04374 0.01552,0.01976 0.0381,0.02963 0.02258,0.0099 0.04657,0.01411 0.02399,0.0028 0.04798,0.0028 z m 0.783166,0.139699 q -0.03669,0 -0.07338,-0.0099 -0.03528,-0.0099 -0.06491,-0.03246 -0.02822,-0.02258 -0.04939,-0.05362 -0.01975,-0.03246 -0.03104,-0.06632 -0.01129,-0.03528 -0.01552,-0.07197 -0.0042,-0.03669 -0.0042,-0.07338 v -0.437444 h 0.167922 v 0.437444 q 0,0.03104 0.0071,0.06209 0.0071,0.02963 0.0254,0.05503 0.01834,0.02399 0.04798,0.03669 0.02963,0.01129 0.06068,0.01129 0.03104,0 0.06068,-0.01129 0.02963,-0.0127 0.04798,-0.03669 0.01834,-0.0254 0.0254,-0.05503 0.0071,-0.03104 0.0071,-0.06209 v -0.437444 h 0.167922 v 0.733778 h -0.167922 V 45.32526 q -0.0127,0.03246 -0.03387,0.06068 -0.01976,0.02822 -0.04798,0.04939 -0.02822,0.01976 -0.06209,0.02822 -0.03387,0.0085 -0.06773,0.0085 z m 0.60819,-0.01129 v -0.733778 h 0.167922 v 0.135467 q 0.0127,-0.03246 0.03245,-0.06068 0.02117,-0.02822 0.04939,-0.04798 0.02822,-0.02117 0.06209,-0.02963 0.03387,-0.0085 0.06773,-0.0085 0.03669,0 0.07197,0.0099 0.03669,0.0099 0.06491,0.03246 0.02963,0.02258 0.04939,0.05503 0.02117,0.03104 0.03245,0.06632 0.01129,0.03387 0.01552,0.07056 0.0042,0.03669 0.0042,0.07338 v 0.437445 h -0.167922 v -0.437445 q 0,-0.03104 -0.0071,-0.06068 -0.0071,-0.03104 -0.0254,-0.05503 -0.01834,-0.0254 -0.04798,-0.03669 -0.02963,-0.0127 -0.06068,-0.0127 -0.03104,0 -0.06068,0.0127 -0.02963,0.01129 -0.04798,0.03669 -0.01834,0.02399 -0.0254,0.05503 -0.0071,0.02963 -0.0071,0.06068 v 0.437445 z m 1.151466,0.01129 q -0.04233,0 -0.08467,-0.0071 -0.04092,-0.0071 -0.07902,-0.02399 -0.03669,-0.01834 -0.06773,-0.04798 -0.03104,-0.02963 -0.0508,-0.06632 -0.01834,-0.0381 -0.02681,-0.07902 -0.0071,-0.04092 -0.0071,-0.08326 v -0.141111 q 0,-0.04233 0.0071,-0.08326 0.0085,-0.04092 0.02681,-0.07761 0.01976,-0.0381 0.0508,-0.06773 0.03104,-0.02963 0.06773,-0.04657 0.0381,-0.01834 0.07902,-0.0254 0.04233,-0.0071 0.08467,-0.0071 0.03951,0 0.07761,0.0056 0.03951,0.0056 0.07479,0.02117 0.03669,0.01411 0.06773,0.03951 0.03245,0.02399 0.05362,0.05644 0.02117,0.03246 0.03104,0.07056 0.01129,0.0381 0.01129,0.07761 v 0.0071 h -0.167922 v -0.0028 q 0,-0.02822 -0.01129,-0.05503 -0.0099,-0.02681 -0.03245,-0.04516 -0.02117,-0.01834 -0.04939,-0.0254 -0.02681,-0.0071 -0.05503,-0.0071 -0.03104,0 -0.06209,0.01129 -0.02963,0.01129 -0.0508,0.03528 -0.01976,0.02399 -0.02822,0.05645 -0.0071,0.03104 -0.0071,0.06209 v 0.141111 q 0,0.03104 0.0071,0.0635 0.0085,0.03104 0.02822,0.05503 0.02117,0.02399 0.0508,0.03528 0.03104,0.01129 0.06209,0.01129 0.02822,0 0.05503,-0.0071 0.02822,-0.0071 0.04939,-0.0254 0.02258,-0.01834 0.03245,-0.04516 0.01129,-0.02681 0.01129,-0.05503 v -0.0028 h 0.167922 v 0.0071 q 0,0.03951 -0.01129,0.07761 -0.0099,0.0381 -0.03104,0.07056 -0.02117,0.03246 -0.05362,0.05786 -0.03104,0.02399 -0.06773,0.03951 -0.03528,0.01411 -0.07479,0.01976 -0.0381,0.0056 -0.07761,0.0056 z m 0.541866,-0.01129 v -1.037166 h 0.167922 v 0.438855 q 0.0127,-0.03246 0.03246,-0.06068 0.02117,-0.02822 0.04939,-0.04798 0.02822,-0.02117 0.06209,-0.02963 0.03387,-0.0085 0.06773,-0.0085 0.03669,0 0.07197,0.0099 0.03669,0.0099 0.06491,0.03246 0.02963,0.02258 0.04939,0.05503 0.02117,0.03104 0.03246,0.06632 0.01129,0.03387 0.01552,0.07056 0.0042,0.03669 0.0042,0.07338 v 0.437445 h -0.167922 v -0.437445 q 0,-0.03104 -0.0071,-0.06068 -0.0071,-0.03104 -0.0254,-0.05503 -0.01835,-0.0254 -0.04798,-0.03669 -0.02963,-0.0127 -0.06068,-0.0127 -0.03104,0 -0.06068,0.0127 -0.02963,0.01129 -0.04798,0.03669 -0.01835,0.02399 -0.0254,0.05503 -0.0071,0.02963 -0.0071,0.06068 v 0.437445 z m 1.155701,0.01129 q -0.04233,0 -0.08467,-0.0071 -0.04092,-0.0071 -0.07902,-0.02399 -0.0381,-0.01834 -0.07056,-0.04657 -0.03104,-0.02963 -0.0508,-0.06632 -0.01975,-0.0381 -0.02822,-0.07902 -0.0071,-0.04233 -0.0071,-0.08467 v -0.141111 q 0,-0.04233 0.0071,-0.08326 0.0085,-0.04233 0.02822,-0.07902 0.01976,-0.0381 0.0508,-0.06632 0.03246,-0.02963 0.07056,-0.04657 0.0381,-0.01834 0.07902,-0.0254 0.04233,-0.0071 0.08467,-0.0071 0.04233,0 0.08326,0.0071 0.04233,0.0071 0.08043,0.0254 0.0381,0.01693 0.06914,0.04657 0.03245,0.02822 0.05221,0.06632 0.01975,0.03669 0.02681,0.07902 0.0085,0.04092 0.0085,0.08326 v 0.141111 h -0.475544 q 0,0.03246 0.0085,0.06491 0.0085,0.03104 0.02963,0.05644 0.02117,0.02399 0.05221,0.03528 0.03245,0.01129 0.06491,0.01129 0.02399,0 0.04798,-0.0028 0.0254,-0.0042 0.04798,-0.01411 0.02258,-0.0099 0.03951,-0.02822 0.01693,-0.01976 0.01693,-0.04374 h 0.165099 q 0,0.03528 -0.01411,0.07055 -0.0127,0.03528 -0.03669,0.0635 -0.02399,0.02681 -0.05644,0.04657 -0.03104,0.01834 -0.06632,0.02963 -0.03387,0.0099 -0.07056,0.01411 -0.03669,0.0042 -0.07338,0.0042 z m -0.155222,-0.448733 h 0.310444 q 0,-0.03245 -0.0085,-0.0635 -0.0085,-0.03246 -0.02963,-0.05644 -0.02117,-0.0254 -0.05362,-0.03669 -0.03104,-0.01129 -0.0635,-0.01129 -0.03246,0 -0.06491,0.01129 -0.03104,0.01129 -0.05221,0.03669 -0.02117,0.02399 -0.02963,0.05644 -0.0085,0.03104 -0.0085,0.0635 z m 0.784577,0.437445 v -0.733778 h 0.167922 v 0.193322 q 0.01411,-0.03528 0.03528,-0.06491 0.02117,-0.03104 0.04939,-0.05503 0.02963,-0.02399 0.06209,-0.03951 0.03387,-0.01693 0.06914,-0.02681 0.03528,-0.01129 0.07197,-0.01411 0.0381,-0.0042 0.07479,-0.0042 v 0.153811 q -0.02258,0 -0.04657,0.0014 -0.02258,0 -0.04657,0.0028 -0.02258,0.0014 -0.04515,0.0056 -0.02258,0.0042 -0.04516,0.0099 -0.02258,0.0056 -0.04515,0.01411 -0.02117,0.0085 -0.04092,0.01976 -0.01975,0.01129 -0.0381,0.02681 -0.01834,0.01552 -0.03104,0.03528 -0.0127,0.01835 -0.01834,0.04092 -0.0056,0.02258 -0.0056,0.04516 v 0.389467 z"
       id="text108"
       style="font-weight:bold;font-size:1.41111px;font-family:'Adwaita Mono';-inkscape-font-specification:'Adwaita Mono Bold';fill:#ffffff;stroke-width:0.264583"
       aria-label="Offline launcher" /></g><metadata
     id="metadata64"><rdf:RDF><cc:Work
         rdf:about=""><dc:title>Prism Launcher Logo</dc:title><dc:date>19/10/2022</dc:date><dc:creator><cc:Agent><dc:title>Prism Launcher</dc:title></cc:Agent></dc:creator><dc:contributor><cc:Agent><dc:title>AutiOne, Boba, ely, Fulmine, gon sawa, Pankakes, tobimori, Zeke</dc:title></cc:Agent></dc:contributor><dc:source>https://github.com/PrismLauncher/PrismLauncher</dc:source><dc:publisher><cc:Agent><dc:title>Prism Launcher</dc:title></cc:Agent></dc:publisher><cc:license
           rdf:resource="http://creativecommons.org/licenses/by-sa/4.0/" /></cc:Work><cc:License
         rdf:about="http://creativecommons.org/licenses/by-sa/4.0/"><cc:permits
           rdf:resource="http://creativecommons.org/ns#Reproduction" /><cc:permits
           rdf:resource="http://creativecommons.org/ns#Distribution" /><cc:requires
           rdf:resource="http://creativecommons.org/ns#Notice" /><cc:requires
           rdf:resource="http://creativecommons.org/ns#Attribution" /><cc:permits
           rdf:resource="http://creativecommons.org/ns#DerivativeWorks" /><cc:requires
           rdf:resource="http://creativecommons.org/ns#ShareAlike" /></cc:License></rdf:RDF></metadata></svg>
